<?xml version="1.0" encoding="UTF-8" standalone="no"?>
<!-- Created with Inkscape (http://www.inkscape.org/) -->

<svg
   xmlns:dc="http://purl.org/dc/elements/1.1/"
   xmlns:cc="http://creativecommons.org/ns#"
   xmlns:rdf="http://www.w3.org/1999/02/22-rdf-syntax-ns#"
   xmlns:svg="http://www.w3.org/2000/svg"
   xmlns="http://www.w3.org/2000/svg"
   xmlns:xlink="http://www.w3.org/1999/xlink"
   xmlns:sodipodi="http://sodipodi.sourceforge.net/DTD/sodipodi-0.dtd"
   xmlns:inkscape="http://www.inkscape.org/namespaces/inkscape"
   width="171"
   height="47"
   id="svg10910"
   version="1.1"
   inkscape:version="0.46+devel"
   sodipodi:docname="New document 11">
  <defs
     id="defs10912">
    <inkscape:perspective
       sodipodi:type="inkscape:persp3d"
       inkscape:vp_x="0 : 526.18109 : 1"
       inkscape:vp_y="0 : 1000 : 0"
       inkscape:vp_z="744.09448 : 526.18109 : 1"
       inkscape:persp3d-origin="372.04724 : 350.78739 : 1"
       id="perspective10918" />
    <inkscape:perspective
       id="perspective10884"
       inkscape:persp3d-origin="0.5 : 0.33333333 : 1"
       inkscape:vp_z="1 : 0.5 : 1"
       inkscape:vp_y="0 : 1000 : 0"
       inkscape:vp_x="0 : 0.5 : 1"
       sodipodi:type="inkscape:persp3d" />
    <filter
       color-interpolation-filters="sRGB"
       id="filter6174"
       inkscape:collect="always">
      <feGaussianBlur
         id="feGaussianBlur6176"
         stdDeviation="0.86047093"
         inkscape:collect="always" />
    </filter>
    <linearGradient
       y2="146.48781"
       x2="432.5"
       y1="187.5"
       x1="432.5"
       gradientTransform="matrix(0.924138,0,0,0.84909342,29.27935,479.42908)"
       gradientUnits="userSpaceOnUse"
       id="linearGradient6578"
       xlink:href="#linearGradient16990"
       inkscape:collect="always" />
    <linearGradient
       id="linearGradient16990">
      <stop
         style="stop-color:#729fcf;stop-opacity:1"
         offset="0"
         id="stop16992" />
      <stop
         id="stop16994"
         offset="0.17068096"
         style="stop-color:#3465a4;stop-opacity:1" />
      <stop
         style="stop-color:#729fcf;stop-opacity:1"
         offset="1"
         id="stop16996" />
    </linearGradient>
    <filter
       color-interpolation-filters="sRGB"
       height="1.4882185"
       y="-0.24410923"
       width="1.0789019"
       x="-0.039450973"
       id="filter5469"
       inkscape:collect="always">
      <feGaussianBlur
         id="feGaussianBlur5471"
         stdDeviation="1.2364387"
         inkscape:collect="always" />
    </filter>
    <linearGradient
       gradientTransform="matrix(1,0,0,1.0120023,0,-7.7317286)"
       gradientUnits="userSpaceOnUse"
       y2="644"
       x2="410"
       y1="624"
       x1="410"
       id="linearGradient7167"
       xlink:href="#linearGradient7161"
       inkscape:collect="always" />
    <linearGradient
       id="linearGradient7161"
       inkscape:collect="always">
      <stop
         id="stop7163"
         offset="0"
         style="stop-color:#ffffff;stop-opacity:1;" />
      <stop
         id="stop7165"
         offset="1"
         style="stop-color:#ffffff;stop-opacity:0;" />
    </linearGradient>
    <linearGradient
       y2="644"
       x2="410"
       y1="624"
       x1="410"
       gradientTransform="matrix(1,0,0,1.0120023,0,-7.7317286)"
       gradientUnits="userSpaceOnUse"
       id="linearGradient10908"
       xlink:href="#linearGradient7161"
       inkscape:collect="always" />
  </defs>
  <sodipodi:namedview
     id="base"
     pagecolor="#ffffff"
     bordercolor="#666666"
     borderopacity="1.0"
     inkscape:pageopacity="0.0"
     inkscape:pageshadow="2"
     inkscape:zoom="1"
     inkscape:cx="82.538301"
     inkscape:cy="30.797463"
     inkscape:document-units="px"
     inkscape:current-layer="layer1"
     showgrid="false"
     borderlayer="true"
     inkscape:showpageshadow="false"
     inkscape:snap-nodes="false"
     inkscape:snap-bbox="true"
     inkscape:window-width="1067"
     inkscape:window-height="700"
     inkscape:window-x="1842"
     inkscape:window-y="301"
     inkscape:window-maximized="0">
    <inkscape:grid
       type="xygrid"
       id="grid10971"
       empspacing="5"
       visible="true"
       enabled="true"
       snapvisiblegridlinesonly="true" />
  </sodipodi:namedview>
  <metadata
     id="metadata10915">
    <rdf:RDF>
      <cc:Work
         rdf:about="">
        <dc:format>image/svg+xml</dc:format>
        <dc:type
           rdf:resource="http://purl.org/dc/dcmitype/StillImage" />
        <dc:title></dc:title>
      </cc:Work>
    </rdf:RDF>
  </metadata>
  <g
     inkscape:label="Layer 1"
     inkscape:groupmode="layer"
     id="layer1"
     transform="translate(-249.24113,-521.39123)">
    <g
       inkscape:export-ydpi="90"
       inkscape:export-xdpi="90"
       transform="matrix(1.2029959,0,0,1.2029959,-173.06116,-203.9108)"
       id="g7169">
      <rect
         ry="8.9205017"
         rx="9.8433123"
         y="94.5"
         x="356.5"
         height="34"
         width="136"
         id="rect17828"
         style="opacity:0.29310345;color:#000000;fill:#000000;fill-opacity:1;fill-rule:nonzero;stroke:#ce5c00;stroke-width:0.8441866px;stroke-linecap:butt;stroke-linejoin:miter;stroke-miterlimit:4;stroke-opacity:1;stroke-dasharray:none;stroke-dashoffset:0;marker:none;visibility:visible;display:inline;overflow:visible;filter:url(#filter6174);enable-background:accumulate"
         transform="matrix(0.985294,0,0,0.9840767,4.24265,513.83154)" />
      <rect
         style="color:#000000;fill:url(#linearGradient6578);fill-opacity:1;fill-rule:nonzero;stroke:#204a87;stroke-width:0.83125806px;stroke-linecap:butt;stroke-linejoin:miter;stroke-miterlimit:4;stroke-opacity:1;stroke-dasharray:none;stroke-dashoffset:0;marker:none;visibility:visible;display:inline;overflow:visible;enable-background:accumulate"
         id="rect17808"
         width="134"
         height="33.963737"
         x="355.5"
         y="604.24585"
         rx="9.6985579"
         ry="8.9109879" />
      <path
         transform="translate(0,2)"
         d="m 383.875,614.5 0,12.125 4.09375,0 c 1.10729,0 1.94855,-0.0856 2.5625,-0.25 0.61394,-0.16993 1.17385,-0.46003 1.65625,-0.84375 0.64135,-0.51528 1.13436,-1.18707 1.46875,-2.03125 0.33985,-0.84417 0.49999,-1.79895 0.5,-2.90625 -10e-6,-2.03917 -0.45957,-3.55934 -1.375,-4.5625 -0.90997,-1.00313 -2.29797,-1.53124 -4.15625,-1.53125 l -4.75,0 z m 45.3125,0 0,12.125 2.40625,0 0,-12.125 -2.40625,0 z m 30.15625,0 0,4.28125 c -0.29602,-0.46045 -0.67003,-0.79005 -1.125,-1.03125 -0.4495,-0.24118 -0.95568,-0.37499 -1.53125,-0.375 -1.07989,10e-6 -1.97104,0.45025 -2.65625,1.34375 -0.67973,0.88804 -1.03125,2.04352 -1.03125,3.46875 0,1.41427 0.35152,2.56592 1.03125,3.4375 0.68521,0.87159 1.58568,1.3125 2.6875,1.3125 0.58105,0 1.07242,-0.13381 1.5,-0.375 0.43305,-0.24667 0.8109,-0.63549 1.15625,-1.15625 l 0,1.21875 2.28125,0 0,-12.125 -2.3125,0 z m -73,2.15625 2.28125,0 c 1.02507,10e-6 1.79886,0.30164 2.28125,0.9375 0.48238,0.63588 0.71874,1.64603 0.71875,3 -10e-6,1.35946 -0.2605,2.32904 -0.78125,2.9375 -0.51528,0.60299 -1.34337,0.90625 -2.5,0.90625 l -2,0 0,-7.78125 z M 400,617.375 c -1.40879,10e-6 -2.5067,0.40035 -3.3125,1.25 -0.80581,0.84967 -1.21875,2.04572 -1.21875,3.53125 0,1.49102 0.41294,2.65034 1.21875,3.5 0.8058,0.84966 1.90371,1.28125 3.3125,1.28125 1.4033,0 2.50669,-0.43159 3.3125,-1.28125 0.81128,-0.84966 1.21874,-2.00898 1.21875,-3.5 -10e-6,-1.48553 -0.40747,-2.68158 -1.21875,-3.53125 -0.80581,-0.84965 -1.9092,-1.24999 -3.3125,-1.25 z m 37.8125,0 c -1.40879,10e-6 -2.5067,0.40035 -3.3125,1.25 -0.80581,0.84967 -1.21875,2.04572 -1.21875,3.53125 0,1.49102 0.41294,2.65034 1.21875,3.5 0.8058,0.84966 1.90371,1.28125 3.3125,1.28125 1.4033,0 2.50669,-0.43159 3.3125,-1.28125 0.81128,-0.84966 1.21874,-2.00898 1.21875,-3.5 -10e-6,-1.48553 -0.40747,-2.68158 -1.21875,-3.53125 -0.80581,-0.84965 -1.9092,-1.24999 -3.3125,-1.25 z m 9.65625,0 c -1.14019,10e-6 -2.04067,0.25502 -2.6875,0.78125 -0.64684,0.52077 -0.96875,1.24082 -0.96875,2.15625 l 0,0.15625 2.25,0 0,-0.125 c 0,-0.3563 0.11736,-0.62063 0.375,-0.8125 0.25763,-0.19185 0.64261,-0.31249 1.125,-0.3125 0.52624,10e-6 0.90025,0.091 1.125,0.25 0.22474,0.15349 0.34374,0.41947 0.34375,0.78125 -10e-6,0.45498 -0.51715,0.74345 -1.53125,0.875 -0.40017,0.0493 -0.72208,0.0866 -0.96875,0.125 -1.07989,0.16446 -1.87233,0.46224 -2.34375,0.90625 -0.46594,0.44402 -0.6875,1.09333 -0.6875,1.9375 0,0.90996 0.22156,1.63165 0.6875,2.125 0.47142,0.49335 1.16514,0.71875 2.03125,0.71875 0.64683,0 1.19963,-0.10256 1.6875,-0.34375 0.48786,-0.24667 0.886,-0.62781 1.1875,-1.09375 0.005,0.21379 0.0186,0.43862 0.0625,0.625 0.0439,0.18638 0.10527,0.34651 0.1875,0.5 l 2.5,0 0,-0.40625 c -0.1809,-0.0932 -0.29827,-0.22535 -0.375,-0.40625 -0.0768,-0.18638 -0.12501,-0.471 -0.125,-0.84375 l 0,-5.09375 c -10e-6,-0.81676 -0.33124,-1.44194 -1,-1.875 -0.66329,-0.43304 -1.62518,-0.62499 -2.875,-0.625 z m -23.375,0.0625 c -0.55914,10e-6 -1.07628,0.12449 -1.53125,0.34375 -0.45498,0.21379 -0.85312,0.53571 -1.1875,0.96875 l 0,-1.0625 -2.34375,0 0,8.9375 2.40625,0 0,-5.3125 c 0,-0.58105 0.1711,-1.04061 0.5,-1.375 0.3289,-0.33986 0.77913,-0.49999 1.34375,-0.5 0.48786,10e-6 0.81746,0.13217 1.03125,0.40625 0.21926,0.27409 0.34374,0.73365 0.34375,1.375 l 0,5.40625 2.375,0 0,-6.09375 c -10e-6,-1.03055 -0.22541,-1.8027 -0.71875,-2.3125 -0.48788,-0.51527 -1.23206,-0.78124 -2.21875,-0.78125 z m -18.875,0.25 2.53125,8.9375 2.40625,0 1.375,-6.40625 1.4375,6.40625 2.375,0 2.53125,-8.9375 -2.34375,0 -1.4375,6.1875 -1.3125,-6.1875 -2.4375,0 -1.25,6.1875 -1.4375,-6.1875 -2.4375,0 z M 400,619.375 c 0.66876,10e-6 1.16945,0.23637 1.53125,0.71875 0.36178,0.47691 0.56249,1.17996 0.5625,2.0625 -10e-6,0.88803 -0.19524,1.54887 -0.5625,2.03125 -0.3618,0.48239 -0.86797,0.71875 -1.53125,0.71875 -0.67425,0 -1.19523,-0.23636 -1.5625,-0.71875 -0.36179,-0.48238 -0.53125,-1.14322 -0.53125,-2.03125 0,-0.88254 0.16946,-1.58559 0.53125,-2.0625 0.36727,-0.48238 0.88825,-0.71874 1.5625,-0.71875 z m 37.8125,0 c 0.66876,10e-6 1.2007,0.23637 1.5625,0.71875 0.36178,0.47691 0.53124,1.17996 0.53125,2.0625 -10e-6,0.88803 -0.19524,1.54887 -0.5625,2.03125 -0.3618,0.48239 -0.86797,0.71875 -1.53125,0.71875 -0.67425,0 -1.19523,-0.23636 -1.5625,-0.71875 -0.36179,-0.48238 -0.53125,-1.14322 -0.53125,-2.03125 0,-0.88254 0.16946,-1.58559 0.53125,-2.0625 0.36727,-0.48238 0.88825,-0.71874 1.5625,-0.71875 z m 19.53125,0.0625 c 0.63587,10e-6 1.11792,0.2583 1.46875,0.71875 0.35082,0.45498 0.53124,1.09333 0.53125,1.9375 -10e-6,0.90996 -0.16562,1.59108 -0.5,2.0625 -0.33439,0.47143 -0.83288,0.71875 -1.46875,0.71875 -0.64136,0 -1.12889,-0.24732 -1.46875,-0.71875 -0.33987,-0.4769 -0.5,-1.15802 -0.5,-2.0625 0,-0.82225 0.15465,-1.47155 0.5,-1.9375 0.34534,-0.47142 0.83999,-0.71874 1.4375,-0.71875 z m -8.28125,2.78125 0,0.84375 c -10e-6,0.6304 -0.18975,1.13273 -0.5625,1.5 -0.36728,0.36179 -0.88442,0.5625 -1.53125,0.5625 -0.36179,0 -0.66122,-0.12064 -0.875,-0.3125 -0.21379,-0.19734 -0.3125,-0.45235 -0.3125,-0.78125 0,-0.31793 0.0856,-0.5691 0.25,-0.75 0.16993,-0.18089 0.48416,-0.3169 0.90625,-0.4375 0.0164,-0.005 0.27693,-0.0779 0.78125,-0.1875 0.50979,-0.10963 0.95455,-0.2566 1.34375,-0.4375 z"
         inkscape:href="#text17742"
         id="path4697"
         style="font-size:16.83969307px;font-style:normal;font-variant:normal;font-weight:normal;font-stretch:normal;text-indent:0;text-align:start;text-decoration:none;line-height:125%;letter-spacing:normal;word-spacing:normal;text-transform:none;direction:ltr;block-progression:tb;writing-mode:lr-tb;text-anchor:start;opacity:0.56730772;color:#000000;fill:#000000;fill-opacity:1;fill-rule:nonzero;stroke:none;stroke-width:1px;marker:none;visibility:visible;display:inline;overflow:visible;filter:url(#filter5469);enable-background:accumulate;font-family:Myriad"
         xlink:href="#text17742"
         inkscape:original="M 383.875 614.5 L 383.875 626.625 L 387.96875 626.625 C 389.07604 626.625 389.9173 626.53945 390.53125 626.375 C 391.14519 626.20507 391.7051 625.91497 392.1875 625.53125 C 392.82885 625.01597 393.32186 624.34418 393.65625 623.5 C 393.9961 622.65583 394.15624 621.70105 394.15625 620.59375 C 394.15624 618.55458 393.69668 617.03441 392.78125 616.03125 C 391.87128 615.02812 390.48328 614.50001 388.625 614.5 L 383.875 614.5 z M 429.1875 614.5 L 429.1875 626.625 L 431.59375 626.625 L 431.59375 614.5 L 429.1875 614.5 z M 459.34375 614.5 L 459.34375 618.78125 C 459.04773 618.3208 458.67372 617.9912 458.21875 617.75 C 457.76925 617.50882 457.26307 617.37501 456.6875 617.375 C 455.60761 617.37501 454.71646 617.82525 454.03125 618.71875 C 453.35152 619.60679 453 620.76227 453 622.1875 C 453 623.60177 453.35152 624.75342 454.03125 625.625 C 454.71646 626.49659 455.61693 626.9375 456.71875 626.9375 C 457.2998 626.9375 457.79117 626.80369 458.21875 626.5625 C 458.6518 626.31583 459.02965 625.92701 459.375 625.40625 L 459.375 626.625 L 461.65625 626.625 L 461.65625 614.5 L 459.34375 614.5 z M 386.34375 616.65625 L 388.625 616.65625 C 389.65007 616.65626 390.42386 616.95789 390.90625 617.59375 C 391.38863 618.22963 391.62499 619.23978 391.625 620.59375 C 391.62499 621.95321 391.3645 622.92279 390.84375 623.53125 C 390.32847 624.13424 389.50038 624.4375 388.34375 624.4375 L 386.34375 624.4375 L 386.34375 616.65625 z M 400 617.375 C 398.59121 617.37501 397.4933 617.77535 396.6875 618.625 C 395.88169 619.47467 395.46875 620.67072 395.46875 622.15625 C 395.46875 623.64727 395.88169 624.80659 396.6875 625.65625 C 397.4933 626.50591 398.59121 626.9375 400 626.9375 C 401.4033 626.9375 402.50669 626.50591 403.3125 625.65625 C 404.12378 624.80659 404.53124 623.64727 404.53125 622.15625 C 404.53124 620.67072 404.12378 619.47467 403.3125 618.625 C 402.50669 617.77535 401.4033 617.37501 400 617.375 z M 437.8125 617.375 C 436.40371 617.37501 435.3058 617.77535 434.5 618.625 C 433.69419 619.47467 433.28125 620.67072 433.28125 622.15625 C 433.28125 623.64727 433.69419 624.80659 434.5 625.65625 C 435.3058 626.50591 436.40371 626.9375 437.8125 626.9375 C 439.2158 626.9375 440.31919 626.50591 441.125 625.65625 C 441.93628 624.80659 442.34374 623.64727 442.34375 622.15625 C 442.34374 620.67072 441.93628 619.47467 441.125 618.625 C 440.31919 617.77535 439.2158 617.37501 437.8125 617.375 z M 447.46875 617.375 C 446.32856 617.37501 445.42808 617.63002 444.78125 618.15625 C 444.13441 618.67702 443.8125 619.39707 443.8125 620.3125 L 443.8125 620.46875 L 446.0625 620.46875 L 446.0625 620.34375 C 446.0625 619.98745 446.17986 619.72312 446.4375 619.53125 C 446.69513 619.3394 447.08011 619.21876 447.5625 619.21875 C 448.08874 619.21876 448.46275 619.30979 448.6875 619.46875 C 448.91224 619.62224 449.03124 619.88822 449.03125 620.25 C 449.03124 620.70498 448.5141 620.99345 447.5 621.125 C 447.09983 621.17434 446.77792 621.21163 446.53125 621.25 C 445.45136 621.41446 444.65892 621.71224 444.1875 622.15625 C 443.72156 622.60027 443.5 623.24958 443.5 624.09375 C 443.5 625.00371 443.72156 625.7254 444.1875 626.21875 C 444.65892 626.7121 445.35264 626.9375 446.21875 626.9375 C 446.86558 626.9375 447.41838 626.83494 447.90625 626.59375 C 448.39411 626.34708 448.79225 625.96594 449.09375 625.5 C 449.09923 625.71379 449.11239 625.93862 449.15625 626.125 C 449.2001 626.31138 449.26152 626.47151 449.34375 626.625 L 451.84375 626.625 L 451.84375 626.21875 C 451.66285 626.12556 451.54548 625.9934 451.46875 625.8125 C 451.392 625.62612 451.34374 625.3415 451.34375 624.96875 L 451.34375 619.875 C 451.34374 619.05824 451.01251 618.43306 450.34375 618 C 449.68046 617.56696 448.71857 617.37501 447.46875 617.375 z M 424.09375 617.4375 C 423.53461 617.43751 423.01747 617.56199 422.5625 617.78125 C 422.10752 617.99504 421.70938 618.31696 421.375 618.75 L 421.375 617.6875 L 419.03125 617.6875 L 419.03125 626.625 L 421.4375 626.625 L 421.4375 621.3125 C 421.4375 620.73145 421.6086 620.27189 421.9375 619.9375 C 422.2664 619.59764 422.71663 619.43751 423.28125 619.4375 C 423.76911 619.43751 424.09871 619.56967 424.3125 619.84375 C 424.53176 620.11784 424.65624 620.5774 424.65625 621.21875 L 424.65625 626.625 L 427.03125 626.625 L 427.03125 620.53125 C 427.03124 619.5007 426.80584 618.72855 426.3125 618.21875 C 425.82462 617.70348 425.08044 617.43751 424.09375 617.4375 z M 405.21875 617.6875 L 407.75 626.625 L 410.15625 626.625 L 411.53125 620.21875 L 412.96875 626.625 L 415.34375 626.625 L 417.875 617.6875 L 415.53125 617.6875 L 414.09375 623.875 L 412.78125 617.6875 L 410.34375 617.6875 L 409.09375 623.875 L 407.65625 617.6875 L 405.21875 617.6875 z M 400 619.375 C 400.66876 619.37501 401.16945 619.61137 401.53125 620.09375 C 401.89303 620.57066 402.09374 621.27371 402.09375 622.15625 C 402.09374 623.04428 401.89851 623.70512 401.53125 624.1875 C 401.16945 624.66989 400.66328 624.90625 400 624.90625 C 399.32575 624.90625 398.80477 624.66989 398.4375 624.1875 C 398.07571 623.70512 397.90625 623.04428 397.90625 622.15625 C 397.90625 621.27371 398.07571 620.57066 398.4375 620.09375 C 398.80477 619.61137 399.32575 619.37501 400 619.375 z M 437.8125 619.375 C 438.48126 619.37501 439.0132 619.61137 439.375 620.09375 C 439.73678 620.57066 439.90624 621.27371 439.90625 622.15625 C 439.90624 623.04428 439.71101 623.70512 439.34375 624.1875 C 438.98195 624.66989 438.47578 624.90625 437.8125 624.90625 C 437.13825 624.90625 436.61727 624.66989 436.25 624.1875 C 435.88821 623.70512 435.71875 623.04428 435.71875 622.15625 C 435.71875 621.27371 435.88821 620.57066 436.25 620.09375 C 436.61727 619.61137 437.13825 619.37501 437.8125 619.375 z M 457.34375 619.4375 C 457.97962 619.43751 458.46167 619.6958 458.8125 620.15625 C 459.16332 620.61123 459.34374 621.24958 459.34375 622.09375 C 459.34374 623.00371 459.17813 623.68483 458.84375 624.15625 C 458.50936 624.62768 458.01087 624.875 457.375 624.875 C 456.73364 624.875 456.24611 624.62768 455.90625 624.15625 C 455.56638 623.67935 455.40625 622.99823 455.40625 622.09375 C 455.40625 621.2715 455.5609 620.6222 455.90625 620.15625 C 456.25159 619.68483 456.74624 619.43751 457.34375 619.4375 z M 449.0625 622.21875 L 449.0625 623.0625 C 449.06249 623.6929 448.87275 624.19523 448.5 624.5625 C 448.13272 624.92429 447.61558 625.125 446.96875 625.125 C 446.60696 625.125 446.30753 625.00436 446.09375 624.8125 C 445.87996 624.61516 445.78125 624.36015 445.78125 624.03125 C 445.78125 623.71332 445.8668 623.46215 446.03125 623.28125 C 446.20118 623.10036 446.51541 622.96435 446.9375 622.84375 C 446.95394 622.83827 447.21443 622.76589 447.71875 622.65625 C 448.22854 622.54662 448.6733 622.39965 449.0625 622.21875 z "
         inkscape:radius="0"
         sodipodi:type="inkscape:offset" />
      <text
         transform="scale(0.99961594,1.0003842)"
         xml:space="preserve"
         style="font-size:16.83969307px;font-style:normal;font-variant:normal;font-weight:bold;font-stretch:normal;text-indent:0;text-align:start;text-decoration:none;line-height:125%;letter-spacing:normal;word-spacing:normal;text-transform:none;direction:ltr;block-progression:tb;writing-mode:lr-tb;text-anchor:start;color:#000000;fill:#ffffff;fill-opacity:1;fill-rule:nonzero;stroke:none;stroke-width:1px;marker:none;visibility:visible;display:inline;overflow:visible;enable-background:accumulate;font-family:Swis721 BT;-inkscape-font-specification:Swis721 BT Bold"
         x="382.63974"
         y="626.62299"
         id="text17742"
         sodipodi:linespacing="125%"><tspan
           sodipodi:role="line"
           x="382.63974"
           y="626.62299"
           id="tspan17746"
           style="font-size:16.83969307px;font-style:normal;font-variant:normal;font-weight:bold;font-stretch:normal;text-align:start;line-height:125%;writing-mode:lr-tb;text-anchor:start;font-family:Swis721 BT;-inkscape-font-specification:Swis721 BT Bold">Download</tspan></text>
      <path
         style="opacity:0.44578313;color:#000000;fill:none;stroke:url(#linearGradient10908);stroke-width:0.831258px;stroke-linecap:butt;stroke-linejoin:miter;stroke-miterlimit:4;stroke-opacity:1;stroke-dashoffset:0;marker:none;visibility:visible;display:inline;overflow:visible;enable-background:accumulate"
         d="m 364.71875,605.03566 c -4.61272,0 -8.21875,3.39721 -8.21875,7.55839 l 0,17.26729 c 0,4.1612 3.60602,7.55839 8.21875,7.55839 l 115.5625,0 c 4.61272,0 8.21875,-3.39721 8.21875,-7.55839 l 0,-17.26729 c 0,-4.1612 -3.60602,-7.55839 -8.21875,-7.55839 l -115.5625,0 z"
         id="path6162" />
    </g>
  </g>
</svg>
